<svg height="511pt" viewBox="-79 0 511 511.998" width="511pt" xmlns="http://www.w3.org/2000/svg"><path d="m55.636719 28.464844h-7.128907v-7.132813c0-4.148437-3.363281-7.511719-7.511718-7.511719-4.148438 0-7.511719 3.363282-7.511719 7.511719v7.132813h-7.132813c-4.148437 0-7.511718 3.363281-7.511718 7.511718 0 4.148438 3.363281 7.511719 7.511718 7.511719h7.132813v7.132813c0 4.148437 3.363281 7.511718 7.511719 7.511718 4.148437 0 7.511718-3.363281 7.511718-7.511718v-7.132813h7.128907c4.148437 0 7.511719-3.363281 7.511719-7.511719 0-4.148437-3.363282-7.511718-7.511719-7.511718zm0 0"/><path d="m299.046875 174.769531h-3.21875v-3.214843c0-4.152344-3.363281-7.511719-7.511719-7.511719-4.148437 0-7.511718 3.359375-7.511718 7.511719v3.214843h-3.21875c-4.148438 0-7.511719 3.363281-7.511719 7.511719 0 4.152344 3.363281 7.511719 7.511719 7.511719h3.21875v3.21875c0 4.148437 3.363281 7.511719 7.511718 7.511719 4.148438 0 7.511719-3.363282 7.511719-7.511719v-3.21875h3.21875c4.148437 0 7.511719-3.359375 7.511719-7.511719 0-4.148438-3.363282-7.511719-7.511719-7.511719zm0 0"/><path d="m345.769531 139.367188h-7.132812v-7.132813c0-4.148437-3.363281-7.511719-7.511719-7.511719s-7.511719 3.363282-7.511719 7.511719v7.132813h-7.132812c-4.148438 0-7.511719 3.363281-7.511719 7.511718 0 4.148438 3.363281 7.511719 7.511719 7.511719h7.132812v7.132813c0 4.148437 3.363281 7.511718 7.511719 7.511718s7.511719-3.363281 7.511719-7.511718v-7.132813h7.132812c4.148438 0 7.511719-3.363281 7.511719-7.511719 0-4.148437-3.363281-7.511718-7.511719-7.511718zm0 0"/><path d="m295.777344 107.039062c-1.492188-4.589843-5.386719-7.875-10.164063-8.570312l-86.976562-12.636719-6.300781-12.761719c-1.832032-3.722656-6.335938-5.246093-10.058594-3.414062-3.71875 1.835938-5.246094 6.339844-3.410156 10.0625l6.863281 13.910156c1.835937 3.714844 5.375 6.289063 9.480469 6.886719l83.359374 12.113281-60.324218 58.800782c-2.964844 2.890624-4.316406 7.054687-3.617188 11.140624l14.242188 83.027344-74.558594-39.199218c-3.671875-1.933594-8.050781-1.929688-11.71875 0l-74.5625 39.199218 14.238281-83.027344c.703125-4.082031-.652343-8.25-3.621093-11.144531l-60.320313-58.796875 83.363281-12.113281c4.101563-.597656 7.644532-3.171875 9.476563-6.886719l37.28125-75.539062 14.945312 30.28125c1.835938 3.71875 6.335938 5.246094 10.058594 3.410156s5.25-6.339844 3.414063-10.058594l-17.128907-34.707031c-2.136719-4.328125-6.460937-7.015625-11.289062-7.015625s-9.152344 2.6875-11.289063 7.015625l-38.898437 78.816406-86.976563 12.636719c-4.777344.695312-8.667968 3.980469-10.160156 8.570312-1.492188 4.589844-.269531 9.535157 3.183594 12.902344l62.9375 61.351563-14.855469 86.625c-.816406 4.757812 1.101563 9.476562 5.007813 12.3125 3.902343 2.835937 8.984374 3.203125 13.257812.957031l51.886719-27.277344c-2.179688 25.328125-6.394531 60.519532-14.257813 88.390625h-21.835937c-8.277344 0-15.011719 6.734375-15.011719 15.011719v16.480469h-8.597656c-8.28125 0-15.015625 6.734375-15.015625 15.011719v25.101562c0 4.152344 3.363281 7.511719 7.511719 7.511719 4.148437 0 7.511718-3.359375 7.511718-7.511719l-.007812-25.089844 16.089844-.003906c.007812 0 .011718.003906.019531.003906h143.46875c.058593 0 .117187-.007812.175781-.011718h15.925781l.007813 108.171874-175.679688.007813v-48.441406c0-4.148438-3.363281-7.511719-7.511718-7.511719-4.148438 0-7.511719 3.363281-7.511719 7.511719v48.441406c0 8.277344 6.734375 15.011719 15.015625 15.011719h175.6875c8.277344 0 15.011718-6.734375 15.011718-15.011719v-108.175781c0-8.28125-6.734374-15.015625-15.011718-15.015625h-8.597656v-16.480469c0-8.277344-6.734376-15.011719-15.011719-15.011719h-26.300781c-7.859376-27.855469-12.078126-63.054687-14.257813-88.390625l51.886719 27.277344c1.855468.980469 3.867187 1.460938 5.867187 1.460938 2.601563 0 5.183594-.816407 7.390625-2.417969 3.902344-2.839844 5.820313-7.558594 5.003906-12.3125l-14.855468-86.625 62.9375-61.351563c3.457031-3.367187 4.675781-8.3125 3.1875-12.902344zm-157.464844 138.578126 10.136719-5.328126 10.136719 5.328126c1.832031 24.894531 5.886718 64.332031 14.453124 96.683593h-49.179687c8.570313-32.355469 12.621094-71.792969 14.453125-96.683593zm44.691406 111.707031c.042969 0 .082032-.007813.125-.007813l31.777344-.003906v16.480469h-128.449219l-.007812-16.46875 27.410156-.003907c.011719 0 .023437.003907.035156.003907zm0 0"/><path d="m206.917969 487.25c8.277343 0 15.011719-6.738281 15.011719-15.015625v-58.675781c0-8.28125-6.734376-15.015625-15.011719-15.015625h-112.46875c-8.28125 0-15.015625 6.734375-15.015625 15.015625v58.675781c0 8.28125 6.734375 15.015625 15.015625 15.015625zm-.011719-73.691406.019531 58.667968-112.46875.007813-.007812-58.667969zm0 0"/><path d="m123.097656 439.375h55.171875c4.148438 0 7.511719-3.363281 7.511719-7.511719 0-4.152343-3.363281-7.511719-7.511719-7.511719h-55.171875c-4.148437 0-7.511718 3.359376-7.511718 7.511719 0 4.148438 3.363281 7.511719 7.511718 7.511719zm0 0"/><path d="m109.160156 461.441406h83.046875c4.148438 0 7.511719-3.359375 7.511719-7.511718 0-4.148438-3.363281-7.511719-7.511719-7.511719h-83.046875c-4.148437 0-7.511718 3.363281-7.511718 7.511719 0 4.152343 3.363281 7.511718 7.511718 7.511718zm0 0"/></svg>