<?xml version="1.0" encoding="iso-8859-1"?>
<!-- Generator: Adobe Illustrator 19.0.0, SVG Export Plug-In . SVG Version: 6.00 Build 0)  -->
<svg version="1.1" id="Capa_1" xmlns="http://www.w3.org/2000/svg" xmlns:xlink="http://www.w3.org/1999/xlink" x="0px" y="0px"
	 viewBox="0 0 512 512" style="enable-background:new 0 0 512 512;" xml:space="preserve">
<g>
	<g>
		<g>
			<path d="M469.333,0H42.667C19.114,0.028,0.028,19.114,0,42.667v358.4c0.028,23.553,19.114,42.639,42.667,42.667H179.2V460.8
				h-59.733c-2.264-0.001-4.435,0.897-6.035,2.498c-1.601,1.601-2.499,3.772-2.498,6.035v34.133
				c-0.001,2.264,0.897,4.435,2.498,6.035c1.601,1.601,3.772,2.499,6.035,2.498h273.067c2.264,0.001,4.435-0.897,6.035-2.498
				c1.601-1.601,2.499-3.772,2.498-6.035v-34.133c0.001-2.264-0.897-4.435-2.498-6.035c-1.601-1.601-3.772-2.499-6.035-2.498H332.8
				v-17.067h136.533c23.553-0.028,42.639-19.114,42.667-42.667v-358.4C511.972,19.114,492.886,0.028,469.333,0z M384,477.867v17.067
				H128v-17.067H384z M196.267,460.8v-17.067h119.467V460.8H196.267z M494.933,401.067c-0.015,14.132-11.468,25.585-25.6,25.6
				H42.667c-14.132-0.015-25.585-11.468-25.6-25.6v-25.6h477.867V401.067z M494.933,358.4H17.067V42.667
				c0.015-14.132,11.468-25.585,25.6-25.6h426.667c14.132,0.015,25.585,11.468,25.6,25.6V358.4z"/>
			<path d="M372.625,77.15c-2.183-2.45-4.425-4.767-6.717-6.925c-1.048-1.021-2.16-1.96-3.234-2.949
				c-0.13-0.153-0.295-0.254-0.434-0.396c-19.323-17.755-42.81-30.353-68.29-36.63c-2.4-0.65-4.8-1.167-7.017-1.55
				c-10.18-2.077-20.544-3.115-30.934-3.1c-34.179-0.114-67.453,10.98-94.725,31.583c-3.247,2.44-6.384,4.988-9.412,7.643
				c-21.139,18.475-36.924,42.291-45.705,68.957l-0.018,0.094c-13.306,40.142-9.927,83.946,9.376,121.573l0,0
				c1.208,2.417,2.5,4.767,3.825,6.95c0.785,1.361,1.7,2.626,2.523,3.959c0.292,0.605,0.655,1.173,1.08,1.694
				c18.42,29.092,45.874,51.34,78.151,63.333l0.206,0.084c0.523,0.193,1.021,0.443,1.548,0.63c2.492,0.925,5.058,1.783,7.4,2.433
				c46.531,14.136,96.982,5.982,136.692-22.092c35.324-24.91,58.89-63.214,65.2-105.975l0.004-0.037l0.012-0.063l-0.002-0.028
				c1.154-7.569,1.726-15.215,1.71-22.871C413.931,144.111,399.212,106.167,372.625,77.15z M336.646,68.161l-37.239-18.616
				C312.683,53.847,325.237,60.122,336.646,68.161z M288.458,63.159l42.175,21.075l-9.916,44.608l-58.608-5.333l-14.9-39.733
				L288.458,63.159z M349.449,204.065l-26.661,48.11h-62.144l-26.667-48.003l30.469-63.311l55.946,5.088L349.449,204.065z
				 M278.367,44.644v4.477l-40.442,20.221c-1.323,0.683-2.536,1.559-3.6,2.6h-56.3l-1.516-4.568
				C206.151,46.697,242.746,38.531,278.367,44.644z M230.94,89.008l15.635,41.7c0.498,1.323,1.182,2.569,2.031,3.7l-28.681,59.6
				L165.85,188.6c-0.144-0.015-0.279,0.009-0.423-0.002l-18.077-54.245c0.192-0.257,0.402-0.533,0.508-0.704l27.924-44.642H230.94z
				 M128.873,123.116c1.438-3.039,2.982-6.018,4.634-8.936c0.535-0.948,1.035-1.917,1.592-2.852
				c2.202-3.692,4.567-7.278,7.094-10.759c0.54-0.739,1.134-1.438,1.688-2.166c2.107-2.771,4.318-5.465,6.632-8.082
				c0.871-0.984,1.756-1.958,2.655-2.921c2.466-2.631,5.036-5.173,7.71-7.626c0.454-0.416,0.88-0.857,1.341-1.268l-28.327,45.344
				l-5.904,1.184C128.279,124.393,128.574,123.753,128.873,123.116z M130.733,247.708c-10.231-19.867-15.557-41.895-15.533-64.242
				c0.023-13.431,1.983-26.788,5.821-39.658l10.781-2.152l18.719,56.169c-0.556,1.297-0.928,2.665-1.104,4.066l-5.098,45.885
				l-11.233,4.219C132.287,250.601,131.49,249.227,130.733,247.708z M195.975,310.768c-21.193-10.024-39.544-25.188-53.383-44.113
				l7.008-2.632l44.874,39.261c0.481,0.328,0.982,0.626,1.5,0.892V310.768z M204.475,289.35l-43.383-37.95l5.067-45.617
				l52.083,5.208l26.684,48.025L204.475,289.35z M215.042,318.15L215.042,318.15c-0.664-0.183-1.337-0.449-2-0.656v-13.316
				c0.106-0.076,0.237-0.099,0.341-0.178l43.192-32.392c0.903-0.692,1.723-1.486,2.444-2.367h61.754l9.625,33.645
				C295.975,324.451,253.889,330.019,215.042,318.15z M393.007,215.316c-0.378,1.629-0.77,3.253-1.205,4.864
				c-0.754,2.795-1.623,5.552-2.55,8.289c-0.5,1.48-0.964,2.972-1.515,4.432c-1.188,3.157-2.529,6.249-3.94,9.309
				c-0.438,0.949-0.806,1.929-1.265,2.868c-1.928,3.95-4.039,7.804-6.333,11.56c-0.583,0.957-1.252,1.86-1.858,2.803
				c-1.782,2.772-3.623,5.506-5.596,8.149c-0.944,1.264-1.955,2.477-2.942,3.709c-1.793,2.241-3.634,4.445-5.565,6.577
				c-1.131,1.25-2.292,2.472-3.469,3.682c-1.973,2.028-4.011,3.994-6.116,5.898c-1.231,1.121-2.454,2.251-3.728,3.33
				c-0.59,0.501-1.231,0.945-1.831,1.436l-8.513-29.741l28.275-51.008h28.908C393.508,212.755,393.302,214.046,393.007,215.316z
				 M396.36,194.408h-32.644l-0.013,0.001l-28.225-56.449c0.668-1.149,1.177-2.383,1.513-3.668l10.65-47.917
				c0.063-0.573,0.092-1.15,0.086-1.727l6.343-2.125l0.021,0.018c2.025,1.908,3.933,3.875,5.867,6.05
				c23.746,25.884,36.896,59.748,36.842,94.875C396.8,187.233,396.643,190.852,396.36,194.408z"/>
		</g>
	</g>
</g>
<g>
</g>
<g>
</g>
<g>
</g>
<g>
</g>
<g>
</g>
<g>
</g>
<g>
</g>
<g>
</g>
<g>
</g>
<g>
</g>
<g>
</g>
<g>
</g>
<g>
</g>
<g>
</g>
<g>
</g>
</svg>
