<?xml version="1.0" encoding="iso-8859-1"?>
<!-- Generator: Adobe Illustrator 19.0.0, SVG Export Plug-In . SVG Version: 6.00 Build 0)  -->
<svg version="1.1" id="Capa_1" xmlns="http://www.w3.org/2000/svg" xmlns:xlink="http://www.w3.org/1999/xlink" x="0px" y="0px"
	 viewBox="0 0 512 512" style="enable-background:new 0 0 512 512;" xml:space="preserve">
<g>
	<g>
		<g>
			<path d="M443.733,82.122V59.733c-0.015-14.132-11.468-25.585-25.6-25.6h-34.446c-79.042-45.511-176.332-45.511-255.374,0H93.867
				c-14.132,0.015-25.585,11.468-25.6,25.6v22.389c-91.918,99.05-90.892,252.523,2.342,350.336l0.148,0.148l0.02,0.02
				c48.275,50.684,115.212,79.37,185.207,79.373c69.995,0.003,136.934-28.677,185.214-79.356l0.063-0.063l0.106-0.106
				C534.624,334.669,535.661,181.179,443.733,82.122z M68.267,403.779C0,317.086,0,194.915,68.267,108.221V403.779z M256,17.067
				c30.328,0.028,60.375,5.819,88.541,17.067H167.459C195.625,22.886,225.672,17.094,256,17.067z M128,457.854
				c-15.508-9.924-29.824-21.598-42.667-34.791v-20.516L128,439.118V457.854z M128,416.654l-42.667-36.571V359.88L128,396.451
				V416.654z M128,373.987l-42.667-36.571v-20.203L128,353.784V373.987z M128,331.32l-42.667-36.571v-20.201L128,311.125V331.32z
				 M426.667,423.055c-12.841,13.198-27.157,24.874-42.667,34.799v-18.736l42.667-36.571V423.055z M426.667,380.082L384,416.654
				v-20.203l42.667-36.571V380.082z M426.667,337.416L384,373.987v-20.203l42.667-36.571V337.416z M426.667,294.749L384,331.32
				v-20.195l42.667-36.577V294.749z M426.667,252.082l-56.75,48.643c-1.893,1.618-2.983,3.984-2.983,6.475v160.538
				c-69.511,36.261-152.356,36.261-221.867,0V307.2c0-2.491-1.09-4.857-2.983-6.475l-56.75-48.643V59.733
				c0.003-4.712,3.822-8.53,8.533-8.533h324.267c4.711,0.003,8.53,3.822,8.533,8.533V252.082z M443.733,108.221
				c33.276,42.058,51.324,94.149,51.2,147.779c0.124,53.627-17.924,105.715-51.2,147.769V108.221z"/>
			<path d="M401.067,85.333H110.933c-2.264-0.001-4.435,0.897-6.035,2.498c-1.601,1.601-2.499,3.772-2.498,6.035v93.867
				c-0.001,2.264,0.897,4.435,2.498,6.035s3.772,2.499,6.035,2.498h290.133c2.264,0.001,4.435-0.897,6.035-2.498
				c1.601-1.601,2.499-3.772,2.498-6.035V93.867c0.001-2.264-0.897-4.435-2.498-6.035C405.502,86.231,403.33,85.332,401.067,85.333z
				 M392.533,179.2H119.467v-17.067h273.067V179.2z M392.533,145.067H119.467V102.4h273.067V145.067z"/>
			<path d="M358.4,213.333h-17.067c-4.713,0-8.533,3.82-8.533,8.533s3.821,8.533,8.533,8.533H358.4
				c2.264,0.001,4.435-0.897,6.035-2.498s2.499-3.772,2.498-6.035c0.001-2.264-0.897-4.435-2.498-6.035
				S360.664,213.332,358.4,213.333z"/>
			<path d="M401.067,213.333H384c-4.713,0-8.533,3.82-8.533,8.533s3.82,8.533,8.533,8.533h17.067c4.713,0,8.533-3.82,8.533-8.533
				S405.78,213.333,401.067,213.333z"/>
			<path d="M256,221.867c-23.564,0-42.667,19.102-42.667,42.667c0,23.564,19.102,42.667,42.667,42.667s42.667-19.102,42.667-42.667
				C298.639,240.981,279.553,221.894,256,221.867z M256,290.133c-14.138,0-25.6-11.462-25.6-25.6c0-14.138,11.461-25.6,25.6-25.6
				c14.138,0,25.6,11.461,25.6,25.6C281.585,278.665,270.132,290.118,256,290.133z"/>
			<path d="M321.792,215.808c-2.441-2.462-6.129-3.201-9.331-1.872c-3.202,1.329-5.281,4.464-5.261,7.931
				c-0.043,3.475,2.025,6.629,5.23,7.975c3.204,1.345,6.904,0.613,9.355-1.851c2.451-2.464,3.162-6.169,1.799-9.365
				C323.152,217.59,322.546,216.638,321.792,215.808z"/>
			<path d="M256,332.8c-14.138,0-25.6,11.462-25.6,25.6S241.862,384,256,384c14.138,0,25.6-11.461,25.6-25.6
				C281.585,344.268,270.132,332.815,256,332.8z M256,366.933c-4.713,0-8.533-3.82-8.533-8.533s3.82-8.533,8.533-8.533
				c4.713,0,8.533,3.82,8.533,8.533C264.53,363.112,260.712,366.93,256,366.933z"/>
		</g>
	</g>
</g>
<g>
</g>
<g>
</g>
<g>
</g>
<g>
</g>
<g>
</g>
<g>
</g>
<g>
</g>
<g>
</g>
<g>
</g>
<g>
</g>
<g>
</g>
<g>
</g>
<g>
</g>
<g>
</g>
<g>
</g>
</svg>
