<svg height="512pt" viewBox="0 0 512 512" width="512pt" xmlns="http://www.w3.org/2000/svg"><path d="m270 154.75c2.628906 0 5.210938-1.070312 7.070312-2.929688 1.859376-1.859374 2.929688-4.441406 2.929688-7.070312s-1.070312-5.210938-2.929688-7.070312c-1.859374-1.859376-4.441406-2.929688-7.070312-2.929688s-5.210938 1.070312-7.070312 2.929688c-1.859376 1.859374-2.929688 4.441406-2.929688 7.070312s1.070312 5.210938 2.929688 7.070312c1.859374 1.859376 4.441406 2.929688 7.070312 2.929688zm0 0"/><path d="m502 397.367188h-175.289062l41.050781-14.941407h134.238281c5.523438 0 10-4.476562 10-10 0-5.519531-4.476562-10-10-10h-126v-222.851562c0-4.207031-2.628906-7.960938-6.578125-9.398438l-356-129.574219c-3.066406-1.113281-6.484375-.664062-9.15625 1.207032s-4.265625 4.929687-4.265625 8.191406v492c0 3.261719 1.59375 6.320312 4.265625 8.191406 1.703125 1.191406 3.707031 1.808594 5.730469 1.808594h.003906 492c5.523438 0 10-4.480469 10-10 0-5.523438-4.476562-10-10-10h-435.289062l85.050781-30.957031h310.238281c5.523438 0 10-4.476563 10-10 0-5.523438-4.476562-10-10-10h-255.285156l65.046875-23.675781h230.238281c5.523438 0 10-4.476563 10-10 0-5.523438-4.476562-10-10-10zm-482-131.367188h120v178.042969l-120 43.675781zm140 0h100v134.367188l-100 36.394531zm120 0h76v99.425781l-76 27.660157zm76-20h-76v-61.25c0-5.523438-4.476562-10-10-10s-10 4.476562-10 10v61.25h-100v-170.761719l196 71.335938zm-216-178.042969v178.042969h-120v-221.71875zm0 0"/><path d="m502 441.039062c-2.628906 0-5.210938 1.070313-7.070312 2.929688-1.859376 1.871094-2.929688 4.441406-2.929688 7.070312 0 2.640626 1.070312 5.210938 2.929688 7.070313 1.859374 1.871094 4.441406 2.929687 7.070312 2.929687s5.210938-1.058593 7.070312-2.929687c1.859376-1.859375 2.929688-4.429687 2.929688-7.070313 0-2.628906-1.070312-5.210937-2.929688-7.070312-1.859374-1.859375-4.441406-2.929688-7.070312-2.929688zm0 0"/></svg>