<?xml version="1.0" encoding="iso-8859-1"?>
<!-- Generator: Adobe Illustrator 19.0.0, SVG Export Plug-In . SVG Version: 6.00 Build 0)  -->
<svg version="1.1" id="Layer_1" xmlns="http://www.w3.org/2000/svg" xmlns:xlink="http://www.w3.org/1999/xlink" x="0px" y="0px"
	 viewBox="0 0 295.238 295.238" style="enable-background:new 0 0 295.238 295.238;" xml:space="preserve">
<g>
	<g>
		<g>
			<path d="M119.049,221.99V200H90.479v21.99l14.286,7.143L119.049,221.99z M100.002,216.105v-6.581h9.524v6.581l-4.762,2.381
				L100.002,216.105z"/>
			<path d="M88.66,223.81h-21.99v28.571h21.99l7.143-14.286L88.66,223.81z M82.773,242.857h-6.581v-9.524h6.581l2.381,4.762
				L82.773,242.857z"/>
			<path d="M90.479,254.2v21.99h28.571V254.2l-14.286-7.143L90.479,254.2z M109.526,266.667h-9.524v-6.581l4.762-2.381l4.762,2.381
				V266.667z"/>
			<path d="M113.726,238.096l7.143,14.286h21.99V223.81h-21.99L113.726,238.096z M126.755,233.333h6.581v9.524h-6.581l-2.381-4.762
				L126.755,233.333z"/>
			<path d="M238.098,228.571c7.876,0,14.286-6.41,14.286-14.286c0-7.876-6.41-14.286-14.286-14.286
				c-7.876,0-14.286,6.41-14.286,14.286C223.812,222.162,230.221,228.571,238.098,228.571z M238.098,209.524
				c2.624,0,4.762,2.138,4.762,4.762c0,2.624-2.138,4.762-4.762,4.762c-2.624,0-4.762-2.138-4.762-4.762
				C233.335,211.662,235.473,209.524,238.098,209.524z"/>
			<path d="M238.098,247.619c-7.876,0-14.286,6.41-14.286,14.286c0,7.876,6.41,14.286,14.286,14.286s14.286-6.41,14.286-14.286
				C252.382,254.029,245.973,247.619,238.098,247.619z M238.098,266.667c-2.624,0-4.762-2.138-4.762-4.762
				c0-2.624,2.138-4.762,4.762-4.762c2.624,0,4.762,2.138,4.762,4.762C242.859,264.529,240.721,266.667,238.098,266.667z"/>
			<path d="M261.907,223.81c-7.876,0-14.286,6.41-14.286,14.286c0,7.876,6.41,14.286,14.286,14.286
				c7.876,0,14.286-6.41,14.286-14.286C276.193,230.219,269.783,223.81,261.907,223.81z M261.907,242.857
				c-2.624,0-4.762-2.138-4.762-4.762c0-2.624,2.138-4.762,4.762-4.762c2.624,0,4.762,2.138,4.762,4.762
				C266.669,240.719,264.531,242.857,261.907,242.857z"/>
			<path d="M228.574,238.095c0-7.876-6.41-14.286-14.286-14.286c-7.876,0-14.286,6.41-14.286,14.286
				c0,7.876,6.41,14.286,14.286,14.286S228.574,245.971,228.574,238.095z M214.288,242.857c-2.624,0-4.762-2.138-4.762-4.762
				c0-2.624,2.138-4.762,4.762-4.762c2.624,0,4.762,2.138,4.762,4.762C219.049,240.719,216.911,242.857,214.288,242.857z"/>
			<path d="M266.588,188.633c6.348-16.11,9.605-33.081,9.605-50.538C276.193,61.948,214.244,0,138.098,0S0.002,61.948,0.002,138.095
				c0,40.219,17.429,78.148,47.843,104.443c2.281,29.433,26.91,52.7,56.919,52.7c21.095,0,39.51-11.519,49.41-28.571h34.51
				c9.9,17.052,28.314,28.571,49.41,28.571c31.51,0,57.143-25.633,57.143-57.143C295.24,216.967,283.683,198.524,266.588,188.633z
				 M266.669,138.096c-0.001,16.052-2.953,31.661-8.715,46.485c-3.314-1.233-6.762-2.167-10.333-2.771v-28.4l17.081-37.576
				C265.969,123.072,266.669,130.501,266.669,138.096z M237.669,57.129l0.024-0.233c10.457,12.8,18.495,27.643,23.424,43.833
				l-20.996,46.166l-36.976-8.214l-26.543-48.662l12.438-37.314L237.669,57.129z M80.216,160.181l4.943,9.067l-44.22,29.476
				l-2.843-1.552v-8.91h0.001L80.216,160.181z M38.098,176.82V156.2l35.629-7.919l1.914,3.51L38.098,176.82z M81.617,142.857
				l25.976-47.619h61.014l25.976,47.619l-20.781,38.095h-69.038c-0.776,0-1.533,0.086-2.304,0.119L81.617,142.857z M139.036,85.714
				h-18.548l56.591-37.724l2.914,1.748l-3.719,11.152L139.036,85.714z M171.369,75.605l-3.371,10.11h-11.795L171.369,75.605z
				 M107.312,83.057l-3.371-10.114l54.343-36.229l9.762,5.857L107.312,83.057z M202.468,148.281l24.895,5.533l-40.705,27.138h-2.01
				L202.468,148.281z M238.098,158.105v12.362l-15.729,10.486h-18.543L238.098,158.105z M142.859,9.642
				c33.295,1.219,63.395,15.138,85.581,37.076l-41.21-3.742l-44.371-26.624V9.642z M149.246,31.286l-48.429,32.286l-4.614-13.838
				L138.098,24.6L149.246,31.286z M133.335,9.643v6.709L88.963,42.976l-41.21,3.743C69.94,24.786,100.039,10.867,133.335,9.643z
				 M38.507,56.886l0.018,0.238L87.155,52.7l12.438,37.314l-26.543,48.662l-36.976,8.214l-20.99-46.171
				C20.013,84.529,28.051,69.686,38.507,56.886z M28.573,198.028l-2.714,2.714c-10.581-18.924-16.333-40.405-16.333-62.648
				c-0.001-7.594,0.699-15.023,1.966-22.256l17.081,37.576V198.028z M48.265,229.986c-6.539-6.386-12.329-13.381-17.305-20.876
				l3.224-3.224l18.014,9.824C50.278,220.2,48.979,225,48.265,229.986z M50.393,203.876l39.352-26.233l2.571,4.714
				c-14.904,3.333-27.604,12.491-35.618,24.957L50.393,203.876z M104.763,285.714c-26.257,0-47.619-21.362-47.619-47.619
				s21.362-47.619,47.619-47.619c26.257,0,47.619,21.362,47.619,47.619S131.02,285.714,104.763,285.714z M184.286,257.143h-25.713
				c2.119-5.967,3.333-12.362,3.333-19.048c0-19.862-10.2-37.376-25.624-47.619h70.3c-15.429,10.243-25.629,27.757-25.629,47.619
				C180.953,244.781,182.168,251.176,184.286,257.143z M238.098,285.714c-26.257,0-47.619-21.362-47.619-47.619
				s21.362-47.619,47.619-47.619s47.619,21.362,47.619,47.619S264.355,285.714,238.098,285.714z"/>
		</g>
	</g>
</g>
<g>
</g>
<g>
</g>
<g>
</g>
<g>
</g>
<g>
</g>
<g>
</g>
<g>
</g>
<g>
</g>
<g>
</g>
<g>
</g>
<g>
</g>
<g>
</g>
<g>
</g>
<g>
</g>
<g>
</g>
</svg>
