<?xml version="1.0" encoding="iso-8859-1"?>
<!-- Generator: Adobe Illustrator 19.0.0, SVG Export Plug-In . SVG Version: 6.00 Build 0)  -->
<svg version="1.1" id="Layer_1" xmlns="http://www.w3.org/2000/svg" xmlns:xlink="http://www.w3.org/1999/xlink" x="0px" y="0px"
	 viewBox="0 0 490.646 490.646" style="enable-background:new 0 0 490.646 490.646;" xml:space="preserve">
<g>
	<g>
		<g>
			<path d="M245.216,224.096c-5.888,0-10.667,4.779-10.667,10.667v85.333c0,5.888,4.779,10.667,10.667,10.667
				s10.667-4.779,10.667-10.667v-85.333C255.883,228.875,251.104,224.096,245.216,224.096z"/>
			<path d="M216.971,224.779c-5.504-2.048-11.669,0.704-13.739,6.229l-22.016,58.709L159.2,231.03
				c-2.069-5.504-8.256-8.256-13.739-6.229c-5.525,2.069-8.32,8.213-6.229,13.739l32,85.333c1.557,4.16,5.547,6.912,9.984,6.912
				c4.437,0,8.427-2.752,9.984-6.912l32-85.333C225.291,232.992,222.496,226.87,216.971,224.779z"/>
			<path d="M287.883,224.096L287.883,224.096c-5.888,0-10.667,4.779-10.667,10.667v85.333c0,5.888,4.779,10.667,10.667,10.667
				s10.667-4.779,10.667-10.667v-32h10.667c17.643,0,32-14.357,32-32c0-17.643-14.357-32-32-32H287.883z M319.883,256.096
				c0,5.888-4.8,10.667-10.667,10.667H298.55V245.43h10.667C315.083,245.43,319.883,250.208,319.883,256.096z"/>
			<path d="M490.08,188.555c-1.301-3.84-4.693-6.613-8.704-7.147l-154.496-20.48L254.859,16.544
				c-1.792-3.605-5.504-5.888-9.536-5.888s-7.723,2.304-9.536,5.909l-72.043,144.363L9.27,181.408
				c-4.011,0.533-7.381,3.307-8.704,7.147c-1.301,3.84-0.32,8.085,2.56,10.965l113.301,113.301L85.558,467.211
				c-0.789,4.011,0.768,8.107,3.989,10.581c3.243,2.496,7.637,2.88,11.243,1.067l144.555-72.277l144.555,72.277
				c1.536,0.747,3.157,1.131,4.779,1.131c2.283,0,4.587-0.747,6.421-2.197c3.243-2.496,4.779-6.571,3.989-10.581l-30.869-154.389
				L487.52,199.52C490.4,196.662,491.382,192.395,490.08,188.555z M355.147,301.771c-2.517,2.539-3.627,6.144-2.923,9.643
				l27.733,138.624L250.123,385.12c-1.515-0.747-3.157-1.131-4.779-1.131s-3.264,0.363-4.779,1.131l-129.835,64.917l27.733-138.624
				c0.704-3.499-0.405-7.125-2.923-9.643L33.483,199.712l138.688-18.389c3.52-0.469,6.571-2.645,8.149-5.803l65.024-130.304
				l65.003,130.304c1.579,3.179,4.629,5.355,8.149,5.803l138.709,18.389L355.147,301.771z"/>
		</g>
	</g>
</g>
<g>
</g>
<g>
</g>
<g>
</g>
<g>
</g>
<g>
</g>
<g>
</g>
<g>
</g>
<g>
</g>
<g>
</g>
<g>
</g>
<g>
</g>
<g>
</g>
<g>
</g>
<g>
</g>
<g>
</g>
</svg>
